<?xml version="1.0" encoding="UTF-8"?>
<svg id="_图层_1" data-name="图层_1" xmlns="http://www.w3.org/2000/svg" viewBox="0 0 88.87 52.45">
  <defs>
    <style>
      .cls-1 {
        fill: #3a3a3a;
      }

      .cls-2 {
        fill: #056de8;
      }
    </style>
  </defs>
  <g>
    <path class="cls-2" d="M40.33,5.04h-17.14v27.52s0,2.39,0,2.39h4.19l.56,3.63,5.7-3.63h6.68V5.04ZM33.1,31.24l-3.33,2.12-.33-2.12h-2.39V8.75h9.41v22.49h-3.37Z"/>
    <path class="cls-2" d="M20.08,18.5h-6.19c.03-.66.05-1.33.06-2.04v-7.71h7.09v-1.81c0-1.05-.85-1.9-1.9-1.9h-11.1c.04-.13.08-.25.12-.36C8.53,3.53,9.74,0,9.74,0c0,0-1.73-.11-3.35.99-.8.54-1.27.96-1.91,2.73-.74,2.04-1.41,4.01-1.82,5.18-.66,1.88-2.29,5.17-2.29,5.17,0,0,1.91.03,3.52-.84,1.57-.84,2.27-2.11,2.83-4.05.04-.12.08-.27.12-.42h3.21v7.71c-.02.7-.06,1.38-.1,2.04h-5.69c-2.05,0-3.71,1.66-3.71,3.72h9.06c-.27,2.07-.64,3.83-1.11,5.11-1.21,3.33-2.63,5.53-4.18,7.39-1.43,1.71-4.34,4.18-4.34,4.18,0,0,4.35,1.65,7.53-1.33,1.92-1.8,3.65-5.35,4.48-8.02.72-2.31,1.25-4.62,1.57-7.33h8.27v-1.93c0-.98-.8-1.78-1.78-1.78Z"/>
    <path class="cls-2" d="M15.65,26.19l-3.25,2.09,7,10.45s.65-1.17.94-3.11c.11-.72.28-1.85-.39-3.04l-4.29-6.39Z"/>
    <path class="cls-2" d="M71.43,19.91V6.8c5.8-.29,11.09-.57,13.1-.68,1.05-.06,1.18-.07,1.18-.07.54-.55,1.23-3.35.96-4.23-.11-.35-.3-.93-.89-.79-1.56.37-2.91.66-5.94,1.02-3.84.45-5.51.57-10.84.96-9.35.68-17.64,1.01-17.64,1.01,0,2.03,1.69,3.65,3.71,3.56,3.16-.13,7.79-.35,12.49-.58v12.92h-17.74c0,2.05,1.66,3.72,3.71,3.72h14.03v9.92c-.01,1.25-.65,1.68-1.71,1.7h-5.43c.39,1.76,2.05,3.24,3.12,3.67,1.52.61,3.25.42,3.75.39,1.9-.1,4.12-1.16,4.12-5.01v-10.67h15.66c.98,0,1.78-.8,1.78-1.78v-1.93h-17.45Z"/>
    <path class="cls-2" d="M59.16,11.05c-1.04-1.44-3.05-1.77-4.49-.73l-.52.38,5.91,8.2,3.13-2.26-4.03-5.59Z"/>
    <path class="cls-2" d="M79.62,10.78l-4.34,5.74,3.09,2.33,6.28-8.3-.52-.39c-1.42-1.07-3.43-.79-4.5.63Z"/>
  </g>
  <g>
    <g>
      <path class="cls-1" d="M1.83,46.65c-.16,0-.23-.09-.23-.26s.08-.26.23-.26h2.08c.12-.23.23-.47.35-.7.06-.21.21-.3.44-.26.16.08.21.2.18.38-.08.22-.18.41-.29.59h3.69c.16.02.24.11.26.26-.02.16-.11.24-.26.26h-3.98c-.18.29-.35.58-.53.85h3.55c.21.02.33.14.35.35v3.4c.04.61-.27.91-.94.91h-.88c-.22-.02-.33-.12-.35-.29,0-.16.07-.23.21-.23h.82c.37.02.55-.15.53-.5v-.5h-3.6v1.41c-.02.18-.12.27-.29.29-.2-.02-.3-.12-.32-.29v-3.4c-.29.33-.62.64-.97.94-.16.12-.29.1-.41-.06-.08-.16-.06-.3.06-.44.82-.7,1.51-1.51,2.08-2.43h-1.76ZM3.44,48.14v.67h3.6v-.67c0-.1-.05-.15-.15-.15h-3.31c-.1,0-.15.05-.15.15ZM3.44,49.31v.82h3.6v-.82h-3.6Z"/>
      <path class="cls-1" d="M12.62,52.36c-.18-.02-.27-.12-.29-.29v-5.13c.02-.18.12-.27.29-.29.2,0,.29.1.29.29v5.13c-.02.18-.12.27-.29.29ZM13.88,46.56c-.18.12-.32.1-.44-.06-.06-.08-.19-.21-.38-.41-.18-.19-.3-.32-.38-.38-.12-.14-.11-.27.03-.41.18-.1.32-.08.44.06.23.22.49.48.76.79.12.14.11.27-.03.41ZM14.35,50.28c-.23,0-.35-.12-.35-.35v-2.17c0-.25.12-.38.35-.38h2.26c.25,0,.38.13.38.38v2.17c-.02.22-.15.33-.38.35h-2.26ZM16.6,52.16c-.2-.02-.31-.12-.35-.29-.04-.18.04-.27.23-.29h.94c.45.02.66-.2.64-.64v-4.6c0-.1-.06-.15-.18-.15h-3.31c-.16-.02-.24-.12-.26-.29.02-.16.11-.24.26-.26h3.69c.23.02.36.15.38.38v5.04c.04.7-.3,1.06-1.03,1.08-.18.02-.52.03-1.03.03ZM16.25,49.75c.12,0,.18-.05.18-.15v-1.52c-.02-.1-.08-.16-.18-.18h-1.55c-.1.02-.16.08-.18.18v1.52c0,.1.06.15.18.15h1.55Z"/>
      <path class="cls-1" d="M22.62,49.14c-.12-.02-.19-.1-.21-.23.02-.16.09-.23.21-.23h2.93c.14,0,.2.08.2.23-.02.14-.09.22-.2.23h-.97v.79h.88c.14,0,.2.08.2.23,0,.12-.07.19-.2.21h-.88v1c.2.1.57.16,1.11.18,1.09.04,2.27.04,3.52,0,.21,0,.32.09.32.26-.02.18-.13.26-.32.26h-1.47c-.96.02-1.66.02-2.11,0-1.21-.04-2-.4-2.37-1.08-.08.37-.2.73-.38,1.08-.1.14-.22.17-.35.09-.12-.08-.15-.2-.09-.35.29-.49.45-1.18.47-2.08.02-.14.1-.21.23-.23.18,0,.26.08.26.23,0,.06,0,.16-.03.29,0,.14,0,.23-.03.29.21.37.45.64.7.82v-1.99h-1.44ZM23.24,48.08c-.23,0-.35-.11-.35-.32v-1.93c0-.21.12-.32.35-.32h1.82c.21.02.33.13.35.32v1.93c0,.22-.12.32-.35.32h-1.82ZM23.38,46.09v.5h1.49v-.5c0-.1-.04-.15-.12-.15h-1.2c-.12,0-.18.05-.18.15ZM24.76,47.67c.08,0,.12-.05.12-.15v-.53h-1.49v.53c0,.1.06.15.18.15h1.2ZM26.14,51.28c-.16.06-.28.02-.38-.12-.04-.16,0-.27.12-.35,1.03-.37,1.51-1.11,1.44-2.23v-.7c0-.16.09-.23.26-.23.18.02.25.1.23.23v.7c0,.39-.03.73-.09,1.03.18.14.44.34.79.62.29.23.51.4.64.5.14.12.15.24.03.38-.1.12-.22.13-.38.03-.12-.12-.32-.3-.62-.56-.29-.25-.51-.43-.64-.53-.22.47-.68.88-1.41,1.23ZM26.05,46c-.16,0-.23-.08-.23-.23.02-.14.1-.21.23-.23h3.16c.12.02.19.1.2.23-.02.14-.09.22-.2.23h-1.44l-.12.85h1.08c.21.02.32.14.32.35v2.34c0,.16-.09.23-.26.23-.16,0-.23-.08-.23-.23v-2.11c0-.1-.05-.15-.15-.15h-1.67c-.12,0-.18.05-.18.15v2.11c0,.16-.08.23-.23.23s-.23-.08-.23-.23v-2.37c0-.21.12-.32.35-.32h.62l.15-.85h-1.17Z"/>
    </g>
    <g>
      <path class="cls-1" d="M38.56,46.62c-.16-.02-.24-.1-.26-.23.02-.16.11-.24.26-.26h1.49v-.03c-.02-.06-.05-.19-.09-.38-.04-.14-.07-.23-.09-.29-.02-.16.05-.25.2-.29.18-.02.29.04.35.18.02.04.04.1.06.18.04.23.08.4.12.5,0,.02-.01.05-.03.09v.06h1.26c.14.02.21.11.23.26-.02.14-.1.22-.23.23h-3.28ZM38.5,51.45c-.14-.08-.18-.2-.12-.35.08-.14.21-.4.41-.79.08-.18.14-.3.18-.38.04-.14.15-.2.32-.18.14.1.19.2.15.32-.16.41-.35.83-.59,1.26-.08.14-.2.18-.35.12ZM39.11,49.31c-.2-.02-.3-.13-.32-.32v-1.35c.02-.21.13-.33.32-.35h2.2c.2.02.3.13.32.32v1.38c-.02.2-.13.3-.32.32h-.82v1.99c.04.57-.22.85-.76.85-.06.02-.22.03-.47.03-.16-.02-.25-.11-.29-.26,0-.18.08-.26.23-.26h.38c.25.02.38-.12.38-.41v-1.93h-.85ZM39.32,47.91v.79c0,.1.05.15.15.15h1.49c.1,0,.15-.05.15-.15v-.79c0-.1-.05-.15-.15-.15h-1.49c-.1,0-.15.05-.15.15ZM41.63,50.84c-.14.06-.24.02-.32-.12-.23-.35-.39-.6-.47-.73-.04-.14,0-.23.12-.29.14-.06.25-.03.35.09.04.06.12.18.23.35.1.18.17.3.21.38.04.12,0,.22-.12.32ZM42.1,47.73c-.16-.02-.24-.11-.26-.26.02-.16.11-.24.26-.26h.62c.02-.55.03-1.15.03-1.82.02-.16.11-.24.26-.26.18.02.27.11.29.26v.88c-.02.43-.03.74-.03.94h1.82c.14.02.21.11.23.26-.02.16-.1.24-.23.26h-1.11l.03.06v3.37c0,.29.11.43.32.41h.15c.23.02.37-.14.41-.47.02-.1.04-.28.06-.56.02-.16.03-.27.03-.35.02-.14.1-.2.23-.18.16.06.22.17.21.32,0,.16-.02.39-.06.7-.02.12-.03.2-.03.26-.06.55-.34.81-.85.79h-.26c-.49.02-.73-.24-.73-.79v-3.46s0-.08.03-.12h-.26c-.08,1.86-.56,3.31-1.44,4.37-.12.12-.25.14-.41.06-.12-.12-.14-.25-.06-.41.88-.98,1.33-2.31,1.35-4.01h-.59ZM44.47,46.68c-.08-.08-.26-.24-.56-.5-.08-.06-.13-.1-.15-.12-.1-.12-.09-.22.03-.32.1-.1.22-.1.38,0,.06.04.18.13.35.26.18.16.29.25.35.29.1.16.09.28-.03.38-.1.1-.22.1-.38,0Z"/>
      <path class="cls-1" d="M49.35,48.26c-.18.1-.33.06-.47-.12-.08-.16-.03-.3.15-.44,1.21-.57,2.18-1.3,2.9-2.2.18-.18.32-.26.44-.26.16,0,.3.09.44.26.61.84,1.56,1.54,2.87,2.11.21.08.27.23.18.44-.12.16-.27.2-.47.12-1.27-.61-2.25-1.33-2.93-2.17-.06-.06-.11-.06-.15,0-.74.88-1.73,1.63-2.96,2.26ZM49.26,49.84c-.16-.02-.24-.12-.26-.29.02-.16.11-.24.26-.26h6.18c.18.02.27.11.29.26-.02.18-.12.27-.29.29h-3.31c-.72.8-1.21,1.31-1.46,1.52-.02.02-.03.04-.03.06s.02.03.06.03c1-.04,2.05-.09,3.16-.15-.2-.21-.4-.42-.62-.62-.1-.12-.1-.24,0-.38.16-.1.3-.09.44.03.1.1.25.25.47.47.47.45.79.77.97.97.12.14.11.27-.03.41-.14.12-.28.11-.44-.03-.04-.04-.09-.1-.15-.18-.08-.08-.14-.14-.18-.18-.18,0-.46.02-.85.06-1.39.06-2.45.11-3.19.15-.25.02-.42-.05-.5-.21-.06-.18,0-.35.18-.53.47-.39.93-.87,1.38-1.44h-2.08ZM50.64,48.32c-.16-.02-.24-.12-.26-.29.02-.16.11-.24.26-.26h3.43c.16.02.24.11.26.26-.02.18-.11.27-.26.29h-3.43Z"/>
      <path class="cls-1" d="M59.71,46.65c-.16,0-.23-.09-.23-.26s.08-.26.23-.26h2.08c.12-.23.23-.47.35-.7.06-.21.21-.3.44-.26.16.08.21.2.18.38-.08.22-.18.41-.29.59h3.69c.16.02.24.11.26.26-.02.16-.11.24-.26.26h-3.98c-.18.29-.35.58-.53.85h3.55c.21.02.33.14.35.35v3.4c.04.61-.27.91-.94.91h-.88c-.22-.02-.33-.12-.35-.29,0-.16.07-.23.21-.23h.82c.37.02.55-.15.53-.5v-.5h-3.6v1.41c-.02.18-.12.27-.29.29-.2-.02-.3-.12-.32-.29v-3.4c-.29.33-.62.64-.97.94-.16.12-.29.1-.41-.06-.08-.16-.06-.3.06-.44.82-.7,1.51-1.51,2.08-2.43h-1.76ZM61.32,48.14v.67h3.6v-.67c0-.1-.05-.15-.15-.15h-3.31c-.1,0-.15.05-.15.15ZM61.32,49.31v.82h3.6v-.82h-3.6Z"/>
      <path class="cls-1" d="M70.21,49.52c-.23.04-.38,0-.44-.15-.04-.2.03-.33.21-.41,1.17-.37,2.14-.92,2.9-1.64.02-.02.05-.04.09-.06.18-.16.32-.22.44-.21.14-.02.3.08.5.29.82.72,1.76,1.22,2.81,1.49.2.1.25.24.18.44-.04.14-.19.19-.44.15-1.11-.41-2.1-.98-2.96-1.7-.06-.06-.13-.06-.21,0-.8.72-1.83,1.32-3.08,1.79ZM69.91,47.44c-.12-.14-.12-.27,0-.41.55-.51.96-1.08,1.23-1.73.1-.16.23-.21.41-.15.16.04.2.15.15.32-.06.16-.13.29-.21.41h1.82c.14.02.21.11.23.26-.02.14-.1.22-.23.23h-2.11c-.23.37-.53.72-.88,1.05-.16.08-.29.08-.41,0ZM71.38,51.98c-.23,0-.36-.13-.38-.38v-1.32c.02-.25.15-.38.38-.38h3.98c.21.02.33.15.35.38v1.32c-.02.23-.14.36-.35.38h-3.98ZM72.26,47.53c-.16.08-.28.06-.38-.06-.1-.1-.22-.27-.38-.53-.1-.14-.09-.24.03-.32.16-.08.28-.07.38.03.06.06.16.19.29.38.04.06.07.1.09.12.08.14.07.26-.03.38ZM74.98,51.48c.1,0,.15-.05.15-.15v-.79c0-.1-.05-.15-.15-.15h-3.22c-.12,0-.18.05-.18.15v.79c0,.1.06.15.18.15h3.22ZM71.88,49.26c-.14-.02-.22-.1-.23-.23.02-.14.1-.21.23-.23h2.96c.14.02.21.1.23.23-.02.14-.1.22-.23.23h-2.96ZM73.61,47.03c-.12-.14-.13-.27-.03-.41.33-.35.61-.79.82-1.32.08-.16.2-.21.38-.18.16.08.2.2.15.35-.06.16-.13.29-.21.41h1.99c.16.02.24.11.26.26-.02.14-.11.22-.26.23h-2.26s-.05.09-.09.15c-.08.1-.19.23-.32.41-.14.14-.28.17-.44.09ZM75.72,47.56c-.14.08-.26.05-.38-.09-.06-.08-.21-.26-.44-.56-.06-.14-.04-.24.06-.32.14-.08.26-.07.38.03.23.29.38.48.44.56.08.14.06.26-.06.38Z"/>
      <path class="cls-1" d="M80.53,50.49c-.14-.02-.22-.1-.23-.23.02-.14.1-.21.23-.23h3.05v-.44c.02-.18.12-.27.29-.29.18.02.27.12.29.29v.44h3.05c.18,0,.26.08.26.23-.02.14-.11.22-.26.23h-2.58c.66.45,1.54.79,2.64,1.03.14.06.19.2.15.41-.1.14-.23.18-.41.12-1.23-.33-2.18-.81-2.84-1.44v1.55c-.02.18-.12.27-.29.29-.18-.02-.27-.12-.29-.29v-1.52c-.7.63-1.65,1.1-2.84,1.44-.2.06-.34.02-.44-.12-.04-.18,0-.3.15-.38,1.09-.23,1.98-.6,2.67-1.08h-2.58ZM80.56,47.64c-.14-.02-.22-.09-.23-.21.02-.14.1-.21.23-.23h2.02c.04-.06.11-.15.2-.26.14-.16.22-.27.26-.35.12-.14.26-.18.44-.12.16.06.2.17.12.32-.04.04-.1.11-.18.21-.08.08-.14.15-.18.2h3.9c.18,0,.26.08.26.23-.02.12-.11.19-.26.21h-1.32c-.25.43-.59.77-1,1.03.12.04.29.09.53.15.64.16,1.1.26,1.38.32.16.08.21.2.15.35-.1.14-.22.19-.38.15-.45-.14-1.22-.36-2.31-.67-.72.27-1.83.5-3.31.67-.18,0-.28-.07-.32-.21-.04-.16.02-.25.18-.29,1.11-.1,1.98-.23,2.61-.41-.49-.12-.97-.23-1.44-.35-.18-.08-.21-.2-.09-.35.12-.12.23-.24.35-.38h-1.61ZM86.77,47.12c-.18-.02-.27-.1-.29-.23v-.41c0-.1-.04-.15-.12-.15h-4.98c-.1,0-.15.05-.15.15v.38c-.02.14-.11.22-.26.23-.18-.02-.27-.1-.29-.23v-.64c0-.21.12-.32.35-.32h2.61c-.02-.08-.06-.19-.12-.32-.04-.1-.06-.16-.06-.18-.02-.16.06-.26.23-.32.21-.02.34.04.38.18.12.29.19.51.21.64h2.43c.2.02.3.13.32.32v.67c0,.16-.09.23-.26.23ZM82.61,48.11c.16.04.42.11.79.2.31.08.55.14.7.18.49-.21.84-.5,1.06-.85h-2.31c-.1.12-.2.22-.29.32-.06.08-.04.13.06.15Z"/>
    </g>
  </g>
</svg>